<?xml version="1.0" encoding="utf-8"?>
<svg width="35" height="36" viewBox="0 0 35 36" fill="none" xmlns="http://www.w3.org/2000/svg">
<path opacity="0.2" d="M5.17491 28.8284C2.36165 27.3201 2.36165 23.2862 5.17491 21.7779L15.9596 15.9958C17.1401 15.3628 18.5591 15.3628 19.7397 15.9958L30.5243 21.7779C33.3376 23.2862 33.3376 27.3201 30.5243 28.8284L19.7397 34.6105C18.5591 35.2435 17.1401 35.2435 15.9596 34.6105L5.17491 28.8284Z" fill="#9123FF"/>
<path opacity="0.5" d="M5.17491 21.5042C2.36165 19.9959 2.36165 15.9619 5.17491 14.4536L15.9596 8.67154C17.1401 8.0386 18.5591 8.0386 19.7397 8.67154L30.5243 14.4536C33.3376 15.9619 33.3376 19.9959 30.5243 21.5042L19.7397 27.2863C18.5591 27.9193 17.1401 27.9193 15.9596 27.2863L5.17491 21.5042Z" fill="#9123FF"/>
<path d="M5.17491 13.514C2.36165 12.0057 2.36165 7.97171 5.17491 6.46341L15.9596 0.681307C17.1401 0.0483637 18.5591 0.0483636 19.7397 0.681307L30.5243 6.46341C33.3376 7.97171 33.3376 12.0057 30.5243 13.514L19.7397 19.2961C18.5591 19.929 17.1401 19.929 15.9596 19.2961L5.17491 13.514Z" fill="#9123FF"/>
</svg>
