<?xml version="1.0" encoding="utf-8"?>
<svg width="40" height="40" viewBox="0 0 40 40" fill="none" xmlns="http://www.w3.org/2000/svg">
<path d="M12.5244 20.0061C12.5244 24.1254 15.8818 27.4838 19.9998 27.4838C24.1179 27.4838 27.4752 24.1254 27.4752 20.0061C27.4752 15.8867 24.1179 12.5283 19.9998 12.5283C15.8818 12.5283 12.5244 15.8867 12.5244 20.0061Z" fill="#FF1F55"/>
<path d="M37.2064 10.1409C37.2588 10.0359 37.2588 9.91784 37.2064 9.81289C35.4621 6.87427 32.9834 4.42105 30.0457 2.70248C27.0031 0.931437 23.5277 0 19.9998 0C13.8883 0 8.18343 2.74184 4.36704 7.53021C4.28835 7.63516 4.27524 7.77947 4.34081 7.89754L9.96704 17.658C10.0195 17.7629 10.1375 17.8154 10.2556 17.8154C10.2687 17.8154 10.2818 17.8154 10.2949 17.8154C10.4261 17.8023 10.531 17.6973 10.5703 17.5661C11.6851 13.2631 15.5539 10.2589 19.9998 10.2589C20.2752 10.2589 20.5637 10.272 20.8523 10.2983C20.8654 10.2983 20.8654 10.2983 20.8785 10.2983H36.9309C37.049 10.2983 37.1539 10.2458 37.2064 10.1409Z" fill="#FCCDDC"/>
<path d="M22.9508 29.5045C22.8721 29.3996 22.7278 29.3602 22.6098 29.3865C21.7573 29.6226 20.8918 29.7407 20 29.7407C16.2492 29.7407 12.7869 27.5367 11.1738 24.1258C11.1738 24.1127 11.1606 24.1127 11.1606 24.0996L3.13442 10.1936C3.08196 10.0886 2.96393 10.0361 2.8459 10.0361C2.72786 10.0361 2.62295 10.1017 2.55737 10.2067C0.891802 13.1715 0 16.5693 0 20.0065C0 24.8342 1.74426 29.4914 4.8918 33.1253C8.0131 36.7199 12.3279 39.0944 17.0098 39.7897C17.0229 39.7897 17.036 39.7897 17.0623 39.7897C17.1803 39.7897 17.2852 39.7241 17.3508 39.6323L22.977 29.8719C23.0426 29.7538 23.0426 29.6095 22.9508 29.5045Z" fill="#FCCDDC"/>
<path d="M38.3208 12.4893H27.0421C26.9109 12.4893 26.7929 12.568 26.7404 12.6992C26.688 12.8172 26.7142 12.9615 26.8191 13.0534C28.7076 14.9031 29.7437 17.3695 29.7437 20.0064C29.7437 22.0004 29.1404 23.9158 27.9994 25.5556C27.9994 25.5688 27.9863 25.5688 27.9863 25.5819L19.9339 39.5141C19.8814 39.619 19.8814 39.7371 19.9339 39.8421C19.9863 39.947 20.1044 39.9995 20.2224 39.9995C25.5208 39.9339 30.4912 37.8349 34.2158 34.0698C37.9404 30.3047 39.9994 25.3064 39.9994 20.0064C39.9994 17.4875 39.5404 15.0212 38.6224 12.6992C38.5699 12.568 38.4519 12.4893 38.3208 12.4893Z" fill="#FCCDDC"/>
</svg>
