<?xml version="1.0" encoding="utf-8"?>
<svg width="42" height="42" viewBox="0 0 42 42" fill="none" xmlns="http://www.w3.org/2000/svg">
<path opacity="0.2" d="M0 5C0 2.23858 2.23858 0 5 0H36.1663C38.9277 0 41.1663 2.23858 41.1663 5V36.1663C41.1663 38.9277 38.9277 41.1663 36.1663 41.1663H5C2.23858 41.1663 0 38.9277 0 36.1663V5Z" fill="#FFBF43"/>
<path d="M10.63 37.0467H15.4183C16.7413 37.0467 17.8124 36.0054 17.8124 34.719V23.5708C17.8124 22.2845 16.7413 21.2432 15.4183 21.2432H10.63C9.30696 21.2432 8.2359 22.2845 8.2359 23.5708V34.719C8.1729 36.0054 9.30696 37.0467 10.63 37.0467Z" fill="#FFBF43"/>
<path d="M25.7501 37.0507H30.5384C31.8615 37.0507 32.9325 36.0094 32.9325 34.723V11.3853C32.9325 10.0989 31.8615 9.05762 30.5384 9.05762H25.7501C24.4271 9.05762 23.356 10.0989 23.356 11.3853V34.723C23.293 36.0094 24.4271 37.0507 25.7501 37.0507Z" fill="#FFBF43"/>
</svg>
