<?xml version="1.0" encoding="utf-8"?>
<svg width="42" height="40" viewBox="0 0 42 40" fill="none" xmlns="http://www.w3.org/2000/svg">
<path d="M16.8734 2.49939C16.7649 3.78917 17.6323 5.07894 19.0419 5.2939C23.4873 6.15375 27.6074 8.41086 30.7517 12.0652C33.8961 15.7196 35.5224 20.1263 35.7393 24.533C35.7393 25.8228 36.932 26.8976 38.2331 27.0051C39.8594 27.1126 41.269 25.8228 41.1605 24.2106C40.9437 18.6216 38.8836 13.0326 34.8719 8.51834C30.8602 4.00413 25.6558 1.10213 20.0177 0.0273224C18.4997 -0.18764 16.9818 0.887172 16.8734 2.49939Z" fill="#C9C2F3"/>
<path d="M16.1146 12.2826C16.0062 13.5724 16.8736 14.7547 18.0663 15.0771C20.0179 15.6145 21.8611 16.6894 23.2707 18.4091C24.6802 20.0213 25.5476 22.0634 25.7644 23.9981C25.9813 25.2879 26.9571 26.2552 28.2582 26.3627C29.993 26.4702 31.4025 24.9654 31.1857 23.2457C30.752 20.2362 29.5593 17.3342 27.3908 14.8622C25.2223 12.3901 22.5117 10.7779 19.5842 9.91804C17.9578 9.48812 16.223 10.5629 16.1146 12.2826Z" fill="#C9C2F3"/>
<path d="M18.0192 34.0639C21.6708 30.9412 22.0774 25.4754 18.9274 21.8555C15.7773 18.2357 10.2634 17.8327 6.61183 20.9553C2.96022 24.078 2.55364 29.5438 5.70371 33.1637C8.85377 36.7835 14.3676 37.1865 18.0192 34.0639Z" fill="#3413F7"/>
</svg>
